<svg xmlns="http://www.w3.org/2000/svg" xmlns:xlink="http://www.w3.org/1999/xlink" width="1361" zoomAndPan="magnify" viewBox="0 0 1020.75 715.499983" height="954" preserveAspectRatio="xMidYMid meet" version="1.0"><defs><g/></defs><g fill="#ffffff" fill-opacity="1"><g transform="translate(15.604707, 302.099081)"><g><path d="M 154.59375 -147.234375 L 154.59375 -117.796875 L 36.8125 -117.796875 L 36.8125 -88.34375 L 125.15625 -88.34375 C 130.550781 -88.34375 135.488281 -87.019531 139.96875 -84.375 C 144.445312 -81.738281 148.003906 -78.179688 150.640625 -73.703125 C 153.273438 -69.234375 154.59375 -64.296875 154.59375 -58.890625 L 154.59375 -29.453125 C 154.59375 -24.046875 153.273438 -19.101562 150.640625 -14.625 C 148.003906 -10.144531 144.445312 -6.585938 139.96875 -3.953125 C 135.488281 -1.316406 130.550781 0 125.15625 0 L 7.359375 0 L 7.359375 -29.453125 L 125.15625 -29.453125 L 125.15625 -58.890625 L 36.8125 -58.890625 C 31.414062 -58.890625 26.476562 -60.207031 22 -62.84375 C 17.519531 -65.488281 13.957031 -69.050781 11.3125 -73.53125 C 8.675781 -78.007812 7.359375 -82.945312 7.359375 -88.34375 L 7.359375 -117.796875 C 7.359375 -123.191406 8.675781 -128.128906 11.3125 -132.609375 C 13.957031 -137.085938 17.519531 -140.644531 22 -143.28125 C 26.476562 -145.914062 31.414062 -147.234375 36.8125 -147.234375 Z M 154.59375 -147.234375 "/></g></g></g><g fill="#ffffff" fill-opacity="1"><g transform="translate(177.562705, 302.099081)"><g><path d="M 154.59375 -147.234375 L 154.59375 -117.796875 L 36.8125 -117.796875 L 36.8125 -88.34375 L 154.59375 -88.34375 L 154.59375 -58.890625 L 36.8125 -58.890625 L 36.8125 -29.453125 L 154.59375 -29.453125 L 154.59375 0 L 36.8125 0 C 31.414062 0 26.476562 -1.316406 22 -3.953125 C 17.519531 -6.585938 13.957031 -10.144531 11.3125 -14.625 C 8.675781 -19.101562 7.359375 -24.046875 7.359375 -29.453125 L 7.359375 -117.796875 C 7.359375 -123.191406 8.675781 -128.128906 11.3125 -132.609375 C 13.957031 -137.085938 17.519531 -140.644531 22 -143.28125 C 26.476562 -145.914062 31.414062 -147.234375 36.8125 -147.234375 Z M 154.59375 -147.234375 "/></g></g></g><g fill="#ffffff" fill-opacity="1"><g transform="translate(339.520704, 302.099081)"><g><path d="M 154.59375 0 L 36.8125 0 C 31.414062 0 26.476562 -1.316406 22 -3.953125 C 17.519531 -6.585938 13.957031 -10.144531 11.3125 -14.625 C 8.675781 -19.101562 7.359375 -24.046875 7.359375 -29.453125 L 7.359375 -147.234375 L 36.8125 -147.234375 L 36.8125 -29.453125 L 154.59375 -29.453125 Z M 154.59375 0 "/></g></g></g><g fill="#ffffff" fill-opacity="1"><g transform="translate(501.478702, 302.099081)"><g><path d="M 154.59375 -147.234375 L 154.59375 -117.796875 L 36.8125 -117.796875 L 36.8125 -88.34375 L 154.59375 -88.34375 L 154.59375 -58.890625 L 36.8125 -58.890625 L 36.8125 -29.453125 L 154.59375 -29.453125 L 154.59375 0 L 36.8125 0 C 31.414062 0 26.476562 -1.316406 22 -3.953125 C 17.519531 -6.585938 13.957031 -10.144531 11.3125 -14.625 C 8.675781 -19.101562 7.359375 -24.046875 7.359375 -29.453125 L 7.359375 -117.796875 C 7.359375 -123.191406 8.675781 -128.128906 11.3125 -132.609375 C 13.957031 -137.085938 17.519531 -140.644531 22 -143.28125 C 26.476562 -145.914062 31.414062 -147.234375 36.8125 -147.234375 Z M 154.59375 -147.234375 "/></g></g></g><g fill="#ffffff" fill-opacity="1"><g transform="translate(663.4367, 302.099081)"><g><path d="M 36.8125 0 L 7.359375 0 L 7.359375 -132.515625 C 7.359375 -136.566406 8.800781 -140.03125 11.6875 -142.90625 C 14.570312 -145.789062 18.035156 -147.234375 22.078125 -147.234375 C 26.128906 -147.234375 29.628906 -145.765625 32.578125 -142.828125 L 125.15625 -50.25 L 125.15625 -147.234375 L 154.59375 -147.234375 L 154.59375 -14.71875 C 154.59375 -10.675781 153.148438 -7.210938 150.265625 -4.328125 C 147.390625 -1.441406 143.925781 0 139.875 0 C 135.820312 0 132.328125 -1.472656 129.390625 -4.421875 L 36.8125 -97 Z M 36.8125 0 "/></g></g></g><g fill="#ffffff" fill-opacity="1"><g transform="translate(825.394665, 302.099081)"><g><path d="M 154.59375 -147.234375 L 154.59375 -117.796875 L 36.8125 -117.796875 L 36.8125 -88.34375 L 154.59375 -88.34375 L 154.59375 -58.890625 L 36.8125 -58.890625 L 36.8125 -29.453125 L 154.59375 -29.453125 L 154.59375 0 L 36.8125 0 C 31.414062 0 26.476562 -1.316406 22 -3.953125 C 17.519531 -6.585938 13.957031 -10.144531 11.3125 -14.625 C 8.675781 -19.101562 7.359375 -24.046875 7.359375 -29.453125 L 7.359375 -117.796875 C 7.359375 -123.191406 8.675781 -128.128906 11.3125 -132.609375 C 13.957031 -137.085938 17.519531 -140.644531 22 -143.28125 C 26.476562 -145.914062 31.414062 -147.234375 36.8125 -147.234375 Z M 154.59375 -147.234375 "/></g></g></g><g fill="#ffffff" fill-opacity="1"><g transform="translate(987.353324, 302.099081)"><g/></g></g><g fill="#ffffff" fill-opacity="1"><g transform="translate(368.436845, 559.518246)"><g><path d="M 36.8125 -147.234375 L 125.15625 -147.234375 C 130.550781 -147.234375 135.488281 -145.914062 139.96875 -143.28125 C 144.445312 -140.644531 148.003906 -137.085938 150.640625 -132.609375 C 153.273438 -128.128906 154.59375 -123.191406 154.59375 -117.796875 L 154.59375 0 L 125.15625 0 L 125.15625 -58.890625 L 36.8125 -58.890625 L 36.8125 0 L 7.359375 0 L 7.359375 -117.796875 C 7.359375 -123.191406 8.675781 -128.128906 11.3125 -132.609375 C 13.957031 -137.085938 17.519531 -140.644531 22 -143.28125 C 26.476562 -145.914062 31.414062 -147.234375 36.8125 -147.234375 Z M 36.8125 -117.796875 L 36.8125 -88.34375 L 125.15625 -88.34375 L 125.15625 -117.796875 Z M 36.8125 -117.796875 "/></g></g></g><g fill="#ffffff" fill-opacity="1"><g transform="translate(530.394843, 559.518246)"><g><path d="M 154.59375 0 L 7.359375 0 L 7.359375 -29.453125 L 66.25 -29.453125 L 66.25 -117.796875 L 7.359375 -117.796875 L 7.359375 -147.234375 L 154.59375 -147.234375 L 154.59375 -117.796875 L 95.703125 -117.796875 L 95.703125 -29.453125 L 154.59375 -29.453125 Z M 154.59375 0 "/></g></g></g></svg>